<?xml version="1.0" encoding="UTF-8"?>
<svg id="Layer_1" data-name="Layer 1" xmlns="http://www.w3.org/2000/svg" viewBox="0 0 640 640">
  <defs>
    <style>
      .cls-1 {
        fill: none;
      }

      .cls-2 {
        fill: #f95d2d;
      }
    </style>
  </defs>
  <rect class="cls-1" width="640" height="640"/>
  <g>
    <path class="cls-2" d="M351.14,265.74c0,17.19-13.94,31.13-31.14,31.13s-31.13-13.94-31.13-31.13,13.94-31.14,31.13-31.14,31.14,13.94,31.14,31.14Z"/>
    <path class="cls-2" d="M408,132.58h-176c-26.51,0-48,21.49-48,48v176c0,26.51,21.49,48,48,48h176c26.51,0,48-21.49,48-48v-176c0-26.51-21.49-48-48-48ZM339.03,332.29l-19.03,41.45-19.02-41.45c-16.45-35.84-49.95-60.9-88.98-66.55l62.6-9.07-54.39-32.28,61.29,15.65-37.86-50.67,50.67,37.86-15.65-61.28,32.28,54.38,9.06-62.59,9.07,62.6,32.28-54.39-15.65,61.28,50.67-37.86-37.86,50.67,61.29-15.65-54.39,32.28,62.59,9.07c-39.03,5.65-72.53,30.71-88.97,66.55Z"/>
  </g>
  <g>
    <path class="cls-2" d="M96,490.46v-1.59c.77-3.32,1.16-8.09,1.16-14.3v-18.71c0-6.69-.39-11.48-1.16-14.37v-1.59h12.57v1.59c-.34,1.11-.61,3.37-.83,6.79-.22,3.42-.33,6.02-.33,7.8v19.28c0,3.52.14,6.72.43,9.61.91.1,2.82.14,5.71.14,7.61,0,13.24-.77,16.9-2.31h1.37l-1.3,7.66h-34.52Z"/>
    <path class="cls-2" d="M151.58,491.83c-5.61,0-10.01-1.64-13.22-4.91-3.2-3.27-4.8-7.58-4.8-12.93s1.85-9.93,5.56-13.76c3.71-3.83,8.44-5.74,14.19-5.74s10.16,1.6,13.22,4.8c3.06,3.2,4.59,7.5,4.59,12.89s-1.85,10.02-5.56,13.87c-3.71,3.85-8.37,5.78-13.98,5.78ZM160.71,473.99c0-4.67-.67-8.32-2.02-10.94-1.35-2.62-3.71-3.94-7.08-3.94-2.17,0-3.85.53-5.06,1.59-.77,1.11-1.4,2.77-1.88,4.98-.48,2.22-.72,4.36-.72,6.43,0,10.06,3.2,15.09,9.61,15.09,1.93,0,3.49-.51,4.69-1.52.82-1.11,1.43-2.8,1.84-5.09.41-2.29.61-4.49.61-6.61Z"/>
    <path class="cls-2" d="M191.7,490.46h-11.7v-1.59c.77-2.36,1.16-5.85,1.16-10.47v-28.38c0-4.14-1.08-7.25-3.25-9.32v-1.59l11.92-2.53.87,1.59c-.14,1.35-.22,6.04-.22,14.08v14.01l10.83-8.23c1.11-.87,1.66-1.76,1.66-2.67h11.34v1.59c-1.83.24-4.36,1.66-7.58,4.26l-10.18,8.16,13,13.94c.77.82,2.01,1.89,3.72,3.21,1.71,1.33,3.12,2.11,4.22,2.35v1.59h-13.72c0-.91-.48-1.88-1.44-2.89-1.3-1.59-5.25-6.02-11.85-13.29v3.25c0,5.25.41,9.03,1.23,11.34v1.59Z"/>
    <path class="cls-2" d="M231.13,491.76c-3.03,0-5.71-.92-8.02-2.74-2.31-1.83-3.47-4.48-3.47-7.94,0-6.69,4.89-10.04,14.66-10.04l6.43.29v-4.41c0-2.5-.63-4.53-1.88-6.07-1.25-1.54-3.18-2.31-5.78-2.31-.58,0-1.33.3-2.24.9-.92.6-1.69,1.22-2.31,1.84-1.98,1.88-3.56,3.42-4.77,4.62-2.41-2.84-3.71-5.71-3.9-8.59,6.16-1.92,11.36-2.89,15.6-2.89s7.78.99,10.62,2.96c2.84,1.98,4.26,5.08,4.26,9.32v11.34c0,2.17.36,4.24,1.08,6.21.72,1.98,1.61,3.3,2.67,3.97l.14,1.59-10.33,2.17c-.77-1.44-1.49-3.47-2.17-6.07-1.25,1.35-2.26,2.35-3.03,3-.77.65-1.84,1.29-3.21,1.91-1.37.62-2.83.94-4.37.94ZM240.81,476.01c-1.73-.63-3.65-.94-5.74-.94s-3.7.39-4.8,1.16c-.72.92-1.08,2.12-1.08,3.61,0,3.76,1.64,5.63,4.91,5.63,2.7,0,4.94-1.11,6.72-3.32v-6.14Z"/>
    <path class="cls-2" d="M301.33,473.41c-1.83-.05-4.36-.07-7.58-.07s-5.83.03-7.8.07c-1.59,5.49-2.53,8.87-2.82,10.15-.29,1.28-.43,3.05-.43,5.31v1.59h-12.13v-1.59c2.5-1.73,5.61-8.14,9.32-19.21,3.71-11.07,6.14-18.4,7.29-21.99,1.16-3.59,1.83-6.18,2.02-7.76l11.12-1.08c0,1.83,1.59,7.08,4.77,15.74,5.92,16.18,10.04,26.12,12.35,29.83,1.11,1.88,2.36,3.37,3.76,4.48v1.59h-15.31v-1.59c0-2.02-1.52-7.17-4.55-15.46ZM293.31,449c-1.59,4.57-3.59,10.95-5.99,19.14h12.49c-.29-.82-.72-2.19-1.3-4.12-1.25-4.28-2.99-9.29-5.2-15.02Z"/>
    <path class="cls-2" d="M337.95,490.46h-12.64v-1.59c.82-2.6,1.23-5.83,1.23-9.68v-10.76c0-2.12-.4-4.18-1.19-6.17-.79-2-1.75-3.31-2.85-3.94v-1.59l10.18-2.38.72,1.01c.29.43.72,1.42,1.3,2.96,3.13-2.6,6.4-3.9,9.82-3.9,1.68,0,3.25.34,4.69,1.01v.65c0,3.03-.6,6.07-1.81,9.1-2.55-1.78-5.3-2.67-8.23-2.67-.92,0-2.02.14-3.32.43v14.23c0,4.62.7,8.52,2.09,11.7v1.59Z"/>
    <path class="cls-2" d="M367.34,491.4c-4.91,0-8.22-1.05-9.93-3.14-1.71-2.09-2.56-5.5-2.56-10.22v-8.59c0-4.77-.72-8.79-2.17-12.06v-1.59h12.57v1.73c-.72,2.5-1.08,5.75-1.08,9.75v9.61c0,2.41.41,4.27,1.23,5.6.82,1.33,1.97,1.99,3.47,1.99,2.55,0,5.59-1.23,9.1-3.68v-11.34c0-4.86-.7-8.88-2.09-12.06v-1.59h12.49v1.73c-.72,2.5-1.08,5.75-1.08,9.75v9.61c0,2.17.35,4.29,1.05,6.36.7,2.07,1.53,3.52,2.49,4.33l.22,1.59-11.34,2.89c-1.01-1.73-1.59-3.68-1.73-5.85-4.14,3.47-7.68,5.2-10.62,5.2Z"/>
    <path class="cls-2" d="M423.89,454.42c3.61,0,6.4,1.12,8.38,3.36s2.96,5.48,2.96,9.71v9.17c0,4.77.72,8.84,2.17,12.21v1.59h-12.71v-1.59c.82-2.26,1.23-5.51,1.23-9.75v-9.03c0-2.79-.34-4.85-1.01-6.18-.68-1.32-2.12-1.99-4.33-1.99s-5.03,1.01-8.45,3.03v11.84c0,5.06.7,9.08,2.09,12.06v1.59h-12.64v-1.59c.82-2.46,1.23-5.87,1.23-10.26v-9.68c0-5.73-1.44-9.32-4.33-10.76v-1.59l11.7-2.24.79,1.37c.38,1.16.65,2.7.79,4.62,2.46-1.97,4.59-3.45,6.39-4.44,1.81-.99,3.72-1.48,5.74-1.48Z"/>
    <path class="cls-2" d="M458.42,462.07v15.46c0,4.57.7,8.35,2.09,11.34v1.59h-12.64v-1.59c.82-2.46,1.23-5.71,1.23-9.75v-10.69c0-2.65-.41-4.85-1.23-6.61-.82-1.76-1.85-2.97-3.11-3.65v-1.59l13.22-2.46.87,1.44c-.29,1.11-.43,3.27-.43,6.5ZM457.04,438.67c.43.39.73,1.2.9,2.46.17,1.25.25,2.22.25,2.89s-.05,1.28-.14,1.81l-.65.58c-2.12.63-4.89,1.06-8.31,1.3l-.79-.36c-.39-.62-.69-1.66-.9-3.11-.22-1.44-.33-2.44-.33-3v-1.12l.65-.58c2.6-.87,5.18-1.3,7.73-1.3h.79l.79.43Z"/>
    <path class="cls-2" d="M481.45,490.46h-11.7v-1.59c.77-2.36,1.16-5.85,1.16-10.47v-28.38c0-4.14-1.08-7.25-3.25-9.32v-1.59l11.92-2.53.87,1.59c-.14,1.35-.22,6.04-.22,14.08v14.01l10.83-8.23c1.11-.87,1.66-1.76,1.66-2.67h11.34v1.59c-1.83.24-4.36,1.66-7.58,4.26l-10.18,8.16,13,13.94c.77.82,2.01,1.89,3.72,3.21,1.71,1.33,3.12,2.11,4.22,2.35v1.59h-13.72c0-.91-.48-1.88-1.44-2.89-1.3-1.59-5.25-6.02-11.85-13.29v3.25c0,5.25.41,9.03,1.23,11.34v1.59Z"/>
    <path class="cls-2" d="M520.89,491.76c-3.03,0-5.71-.92-8.02-2.74-2.31-1.83-3.47-4.48-3.47-7.94,0-6.69,4.89-10.04,14.66-10.04l6.43.29v-4.41c0-2.5-.63-4.53-1.88-6.07-1.25-1.54-3.18-2.31-5.78-2.31-.58,0-1.33.3-2.24.9-.92.6-1.69,1.22-2.31,1.84-1.98,1.88-3.56,3.42-4.77,4.62-2.41-2.84-3.71-5.71-3.9-8.59,6.16-1.92,11.36-2.89,15.6-2.89s7.78.99,10.62,2.96c2.84,1.98,4.26,5.08,4.26,9.32v11.34c0,2.17.36,4.24,1.08,6.21.72,1.98,1.61,3.3,2.67,3.97l.14,1.59-10.33,2.17c-.77-1.44-1.49-3.47-2.17-6.07-1.25,1.35-2.26,2.35-3.03,3-.77.65-1.84,1.29-3.21,1.91-1.37.62-2.83.94-4.37.94ZM530.57,476.01c-1.73-.63-3.65-.94-5.74-.94s-3.7.39-4.8,1.16c-.72.92-1.08,2.12-1.08,3.61,0,3.76,1.64,5.63,4.91,5.63,2.7,0,4.94-1.11,6.72-3.32v-6.14Z"/>
  </g>
</svg>