<?xml version="1.0" encoding="UTF-8"?>
<svg id="Layer_1" data-name="Layer 1" xmlns="http://www.w3.org/2000/svg" viewBox="0 0 2160 368">
  <defs>
    <style>
      .cls-1 {
        fill: none;
      }

      .cls-2 {
        fill: #f95d2d;
      }

      .cls-3 {
        fill: #fcfcfc;
      }
    </style>
  </defs>
  <rect class="cls-1" width="2160" height="368"/>
  <g>
    <rect class="cls-2" x="1792" y="48" width="272" height="272" rx="48" ry="48"/>
    <path class="cls-3" d="M1973.41,172.1l54.39-32.28-61.29,15.65,37.86-50.67-50.67,37.86,15.65-61.28-32.28,54.39-9.07-62.6-9.06,62.59-32.28-54.38,15.65,61.28-50.67-37.86,37.86,50.67-61.29-15.65,54.39,32.28-62.6,9.07c39.03,5.65,72.53,30.71,88.98,66.55l19.02,41.45,19.03-41.45c16.44-35.84,49.94-60.9,88.97-66.55l-62.59-9.07ZM1928,212.3c-17.19,0-31.13-13.94-31.13-31.13s13.94-31.14,31.13-31.14,31.14,13.94,31.14,31.14-13.94,31.13-31.14,31.13Z"/>
  </g>
  <g>
    <path class="cls-3" d="M96,277.38v-5.67c2.75-11.87,4.13-28.89,4.13-51.07v-66.81c0-23.9-1.38-41.01-4.13-51.33v-5.67h44.88v5.67c-1.21,3.96-2.19,12.04-2.97,24.25-.77,12.21-1.16,21.5-1.16,27.86v68.87c0,12.56.52,23.99,1.55,34.31,3.26.35,10.06.52,20.38.52,27.17,0,47.29-2.75,60.36-8.25h4.9l-4.64,27.34h-123.3Z"/>
    <path class="cls-3" d="M294.49,282.28c-20.03,0-35.77-5.84-47.2-17.54-11.44-11.69-17.15-27.08-17.15-46.17s6.62-35.47,19.86-49.14c13.24-13.67,30.13-20.51,50.69-20.51s36.28,5.72,47.2,17.15c10.92,11.44,16.38,26.79,16.38,46.04s-6.62,35.77-19.86,49.52c-13.24,13.76-29.88,20.64-49.91,20.64ZM327.12,218.56c0-16.68-2.41-29.7-7.22-39.08-4.82-9.37-13.24-14.06-25.28-14.06-7.74,0-13.76,1.89-18.06,5.68-2.75,3.96-4.99,9.89-6.71,17.8-1.72,7.91-2.58,15.57-2.58,22.96,0,35.94,11.43,53.91,34.31,53.91,6.88,0,12.47-1.81,16.77-5.42,2.92-3.95,5.11-10.02,6.58-18.18,1.46-8.17,2.19-16.03,2.19-23.6Z"/>
    <path class="cls-3" d="M437.77,277.38h-41.79v-5.67c2.75-8.42,4.13-20.89,4.13-37.4v-101.37c0-14.79-3.87-25.88-11.61-33.28v-5.67l42.56-9.03,3.1,5.67c-.52,4.82-.77,21.58-.77,50.3v50.04l38.69-29.41c3.95-3.1,5.93-6.28,5.93-9.54h40.5v5.67c-6.54.86-15.57,5.93-27.08,15.22l-36.37,29.15,46.43,49.78c2.75,2.93,7.18,6.75,13.28,11.48,6.1,4.73,11.13,7.53,15.09,8.38v5.67h-49.01c0-3.27-1.72-6.71-5.16-10.32-4.64-5.67-18.74-21.49-42.3-47.46v11.61c0,18.74,1.46,32.24,4.39,40.5v5.67Z"/>
    <path class="cls-3" d="M578.61,282.02c-10.83,0-20.38-3.27-28.63-9.8-8.25-6.53-12.38-15.99-12.38-28.37,0-23.9,17.45-35.85,52.36-35.85l22.96,1.03v-15.73c0-8.94-2.24-16.16-6.71-21.67-4.47-5.5-11.35-8.25-20.64-8.25-2.06,0-4.73,1.08-8,3.23-3.27,2.15-6.02,4.34-8.25,6.58-7.05,6.71-12.73,12.21-17.02,16.51-8.6-10.14-13.24-20.38-13.93-30.7,22.01-6.88,40.58-10.32,55.72-10.32s27.77,3.53,37.92,10.58c10.14,7.05,15.22,18.15,15.22,33.28v40.5c0,7.74,1.29,15.13,3.87,22.18,2.58,7.05,5.76,11.78,9.54,14.19l.52,5.68-36.89,7.74c-2.75-5.16-5.33-12.38-7.74-21.67-4.47,4.82-8.08,8.38-10.83,10.7-2.75,2.32-6.58,4.6-11.48,6.84s-10.1,3.35-15.61,3.35ZM613.17,225.79c-6.19-2.23-13.03-3.35-20.51-3.35s-13.2,1.38-17.15,4.13c-2.58,3.27-3.87,7.57-3.87,12.9,0,13.41,5.84,20.12,17.54,20.12,9.63,0,17.63-3.95,23.99-11.86v-21.93Z"/>
    <path class="cls-3" d="M829.32,216.5c-6.54-.17-15.56-.26-27.08-.26s-20.81.09-27.86.26c-5.67,19.6-9.03,31.69-10.06,36.24-1.03,4.56-1.55,10.88-1.55,18.96v5.67h-43.33v-5.67c8.94-6.19,20.03-29.06,33.27-68.61,13.24-39.55,21.93-65.73,26.05-78.54,4.13-12.81,6.53-22.05,7.22-27.73l39.72-3.87c0,6.54,5.67,25.28,17.02,56.23,21.15,57.78,35.85,93.29,44.11,106.53,3.95,6.71,8.42,12.04,13.41,15.99v5.67h-54.68v-5.67c0-7.22-5.42-25.62-16.25-55.2ZM800.69,129.32c-5.68,16.34-12.81,39.12-21.41,68.36h44.62c-1.03-2.92-2.58-7.82-4.64-14.7-4.47-15.3-10.66-33.19-18.57-53.65Z"/>
    <path class="cls-3" d="M960.1,277.38h-45.14v-5.67c2.92-9.29,4.39-20.81,4.39-34.57v-38.43c0-7.57-1.42-14.92-4.26-22.05-2.84-7.13-6.24-11.82-10.19-14.06v-5.67l36.37-8.51,2.58,3.61c1.03,1.55,2.58,5.07,4.64,10.58,11.18-9.29,22.87-13.93,35.08-13.93,6.02,0,11.61,1.21,16.77,3.61v2.32c0,10.83-2.15,21.67-6.45,32.5-9.12-6.36-18.92-9.54-29.41-9.54-3.27,0-7.22.52-11.87,1.55v50.82c0,16.51,2.49,30.44,7.48,41.79v5.67Z"/>
    <path class="cls-3" d="M1065.08,280.73c-17.54,0-29.36-3.74-35.47-11.22-6.11-7.48-9.16-19.64-9.16-36.5v-30.7c0-17.02-2.58-31.38-7.74-43.08v-5.67h44.88v6.19c-2.58,8.94-3.87,20.55-3.87,34.82v34.31c0,8.6,1.46,15.26,4.38,19.99,2.92,4.73,7.05,7.09,12.38,7.09,9.11,0,19.95-4.39,32.5-13.16v-40.5c0-17.37-2.5-31.73-7.48-43.08v-5.67h44.62v6.19c-2.58,8.94-3.87,20.55-3.87,34.82v34.31c0,7.74,1.25,15.31,3.74,22.7,2.49,7.4,5.46,12.56,8.9,15.48l.77,5.67-40.5,10.32c-3.61-6.19-5.68-13.15-6.19-20.89-14.79,12.38-27.43,18.57-37.92,18.57Z"/>
    <path class="cls-3" d="M1267.05,148.66c12.9,0,22.87,4,29.92,11.99,7.05,8,10.58,19.56,10.58,34.69v32.76c0,17.02,2.58,31.56,7.74,43.59v5.67h-45.4v-5.67c2.92-8.08,4.39-19.69,4.39-34.82v-32.24c0-9.97-1.21-17.32-3.61-22.05-2.41-4.73-7.57-7.09-15.48-7.09s-17.97,3.61-30.18,10.83v42.3c0,18.06,2.49,32.42,7.48,43.08v5.67h-45.14v-5.67c2.92-8.77,4.38-20.98,4.38-36.63v-34.56c0-20.46-5.16-33.28-15.48-38.43v-5.68l41.79-8,2.84,4.9c1.37,4.13,2.32,9.63,2.84,16.51,8.77-7.05,16.38-12.34,22.83-15.86,6.45-3.52,13.28-5.29,20.51-5.29Z"/>
    <path class="cls-3" d="M1390.34,176v55.2c0,16.34,2.49,29.84,7.48,40.5v5.67h-45.14v-5.67c2.92-8.77,4.38-20.38,4.38-34.82v-38.18c0-9.46-1.46-17.32-4.38-23.6-2.93-6.28-6.62-10.62-11.09-13.03v-5.68l47.2-8.77,3.09,5.16c-1.03,3.96-1.55,11.7-1.55,23.21ZM1385.44,92.43c1.55,1.38,2.62,4.3,3.22,8.77.6,4.47.9,7.91.9,10.32s-.17,4.56-.52,6.45l-2.32,2.06c-7.57,2.24-17.46,3.78-29.66,4.64l-2.84-1.29c-1.38-2.23-2.45-5.93-3.22-11.09-.77-5.16-1.16-8.73-1.16-10.7v-4l2.32-2.06c9.29-3.09,18.48-4.64,27.6-4.64h2.84l2.84,1.55Z"/>
    <path class="cls-3" d="M1472.62,277.38h-41.79v-5.67c2.75-8.42,4.13-20.89,4.13-37.4v-101.37c0-14.79-3.87-25.88-11.61-33.28v-5.67l42.56-9.03,3.1,5.67c-.52,4.82-.77,21.58-.77,50.3v50.04l38.69-29.41c3.95-3.1,5.93-6.28,5.93-9.54h40.5v5.67c-6.54.86-15.57,5.93-27.08,15.22l-36.37,29.15,46.43,49.78c2.75,2.93,7.18,6.75,13.28,11.48,6.1,4.73,11.13,7.53,15.09,8.38v5.67h-49.01c0-3.27-1.72-6.71-5.16-10.32-4.64-5.67-18.74-21.49-42.3-47.46v11.61c0,18.74,1.46,32.24,4.39,40.5v5.67Z"/>
    <path class="cls-3" d="M1613.46,282.02c-10.83,0-20.38-3.27-28.63-9.8-8.25-6.53-12.38-15.99-12.38-28.37,0-23.9,17.45-35.85,52.36-35.85l22.96,1.03v-15.73c0-8.94-2.24-16.16-6.71-21.67-4.47-5.5-11.35-8.25-20.64-8.25-2.06,0-4.73,1.08-8,3.23-3.27,2.15-6.02,4.34-8.25,6.58-7.05,6.71-12.73,12.21-17.02,16.51-8.6-10.14-13.24-20.38-13.93-30.7,22.01-6.88,40.58-10.32,55.72-10.32s27.77,3.53,37.92,10.58c10.14,7.05,15.22,18.15,15.22,33.28v40.5c0,7.74,1.29,15.13,3.87,22.18,2.58,7.05,5.76,11.78,9.54,14.19l.52,5.68-36.89,7.74c-2.75-5.16-5.33-12.38-7.74-21.67-4.47,4.82-8.08,8.38-10.83,10.7-2.75,2.32-6.58,4.6-11.48,6.84-4.9,2.23-10.1,3.35-15.61,3.35ZM1648.02,225.79c-6.19-2.23-13.03-3.35-20.51-3.35s-13.2,1.38-17.15,4.13c-2.58,3.27-3.87,7.57-3.87,12.9,0,13.41,5.84,20.12,17.54,20.12,9.63,0,17.63-3.95,23.99-11.86v-21.93Z"/>
  </g>
</svg>