<?xml version="1.0" encoding="UTF-8"?>
<svg id="Layer_1" data-name="Layer 1" xmlns="http://www.w3.org/2000/svg" viewBox="0 0 2160 368">
  <defs>
    <style>
      .cls-1 {
        fill: none;
      }

      .cls-2 {
        fill: #1e1e1e;
      }

      .cls-3 {
        fill: #f95d2d;
      }

      .cls-4 {
        fill: #fcfcfc;
      }
    </style>
  </defs>
  <g>
    <rect class="cls-3" x="1792" y="48" width="272" height="272" rx="48" ry="48"/>
    <path class="cls-4" d="M1973.41,172.1l54.39-32.28-61.29,15.65,37.86-50.67-50.67,37.86,15.65-61.28-32.28,54.39-9.07-62.6-9.06,62.59-32.28-54.38,15.65,61.28-50.67-37.86,37.86,50.67-61.29-15.65,54.39,32.28-62.6,9.07c39.03,5.65,72.53,30.71,88.98,66.55l19.02,41.45,19.03-41.45c16.44-35.84,49.94-60.9,88.97-66.55l-62.59-9.07ZM1928,212.3c-17.19,0-31.13-13.94-31.13-31.13s13.94-31.14,31.13-31.14,31.14,13.94,31.14,31.14-13.94,31.13-31.14,31.13Z"/>
  </g>
  <g>
    <path class="cls-2" d="M96,276.89v-5.65c2.73-11.8,4.11-28.74,4.11-50.81v-66.46c0-23.78-1.37-40.8-4.11-51.07v-5.65h44.65v5.65c-1.2,3.94-2.18,11.98-2.95,24.12-.77,12.15-1.15,21.39-1.15,27.71v68.51c0,12.49.51,23.86,1.54,34.13,3.25.35,10.01.51,20.27.51,27.03,0,47.04-2.73,60.05-8.21h4.88l-4.62,27.2h-122.66Z"/>
    <path class="cls-2" d="M293.46,281.77c-19.93,0-35.58-5.81-46.96-17.45-11.38-11.63-17.06-26.94-17.06-45.93s6.58-35.28,19.76-48.88c13.17-13.6,29.98-20.4,50.42-20.4s36.09,5.69,46.96,17.07c10.86,11.38,16.3,26.65,16.3,45.81s-6.59,35.58-19.76,49.27c-13.18,13.69-29.73,20.53-49.66,20.53ZM325.92,218.39c0-16.59-2.4-29.55-7.18-38.88-4.79-9.32-13.18-13.99-25.15-13.99-7.7,0-13.69,1.88-17.96,5.65-2.74,3.94-4.96,9.84-6.67,17.71-1.71,7.87-2.57,15.49-2.57,22.84,0,35.76,11.37,53.63,34.13,53.63,6.84,0,12.4-1.8,16.68-5.39,2.91-3.93,5.09-9.96,6.54-18.09,1.45-8.12,2.18-15.95,2.18-23.48Z"/>
    <path class="cls-2" d="M436.01,276.89h-41.57v-5.65c2.73-8.38,4.11-20.79,4.11-37.21v-100.85c0-14.71-3.85-25.75-11.55-33.1v-5.65l42.34-8.98,3.08,5.65c-.51,4.79-.77,21.47-.77,50.04v49.78l38.49-29.25c3.93-3.08,5.9-6.24,5.9-9.49h40.29v5.65c-6.5.86-15.49,5.9-26.94,15.14l-36.18,29,46.19,49.53c2.73,2.91,7.14,6.72,13.22,11.42,6.07,4.71,11.07,7.49,15.01,8.34v5.65h-48.76c0-3.25-1.71-6.67-5.13-10.26-4.62-5.65-18.65-21.38-42.08-47.22v11.55c0,18.65,1.45,32.08,4.36,40.29v5.65Z"/>
    <path class="cls-2" d="M576.12,281.51c-10.78,0-20.27-3.25-28.48-9.75-8.21-6.5-12.32-15.91-12.32-28.23,0-23.78,17.36-35.67,52.09-35.67l22.84,1.03v-15.65c0-8.89-2.22-16.08-6.67-21.56-4.45-5.47-11.29-8.21-20.53-8.21-2.05,0-4.71,1.07-7.96,3.21-3.25,2.14-5.99,4.32-8.21,6.54-7.02,6.67-12.66,12.15-16.94,16.42-8.56-10.09-13.17-20.27-13.86-30.54,21.9-6.84,40.37-10.26,55.43-10.26s27.63,3.51,37.72,10.52c10.09,7.02,15.14,18.05,15.14,33.1v40.29c0,7.7,1.28,15.06,3.85,22.07,2.57,7.02,5.73,11.72,9.49,14.11l.51,5.65-36.7,7.7c-2.74-5.13-5.3-12.32-7.7-21.56-4.45,4.79-8.04,8.34-10.78,10.65-2.74,2.31-6.54,4.58-11.42,6.8-4.88,2.22-10.05,3.34-15.52,3.34ZM610.5,225.57c-6.16-2.22-12.96-3.34-20.4-3.34s-13.13,1.37-17.07,4.11c-2.57,3.25-3.85,7.53-3.85,12.83,0,13.34,5.81,20.02,17.45,20.02,9.58,0,17.53-3.93,23.86-11.8v-21.81Z"/>
    <path class="cls-2" d="M825.54,216.33c-6.5-.17-15.48-.26-26.94-.26s-20.7.09-27.71.26c-5.65,19.5-8.98,31.52-10.01,36.05-1.03,4.53-1.54,10.82-1.54,18.86v5.65h-43.11v-5.65c8.89-6.16,19.93-28.91,33.1-68.26,13.17-39.34,21.81-65.39,25.92-78.14,4.11-12.74,6.5-21.94,7.18-27.59l39.52-3.85c0,6.5,5.65,25.15,16.94,55.94,21.04,57.48,35.67,92.81,43.88,105.98,3.93,6.67,8.38,11.98,13.34,15.91v5.65h-54.4v-5.65c0-7.19-5.39-25.49-16.17-54.92ZM797.05,129.6c-5.65,16.25-12.75,38.92-21.3,68h44.39c-1.03-2.91-2.57-7.78-4.62-14.63-4.45-15.22-10.61-33.01-18.48-53.37Z"/>
    <path class="cls-2" d="M955.64,276.89h-44.91v-5.65c2.91-9.24,4.36-20.7,4.36-34.39v-38.24c0-7.53-1.41-14.84-4.23-21.94-2.82-7.1-6.2-11.76-10.14-13.99v-5.65l36.18-8.47,2.57,3.59c1.03,1.54,2.57,5.05,4.62,10.52,11.12-9.24,22.75-13.86,34.9-13.86,5.99,0,11.55,1.2,16.68,3.59v2.31c0,10.78-2.14,21.55-6.41,32.33-9.07-6.33-18.82-9.49-29.25-9.49-3.25,0-7.19.51-11.8,1.54v50.55c0,16.42,2.48,30.28,7.44,41.57v5.65Z"/>
    <path class="cls-2" d="M1060.07,280.23c-17.45,0-29.21-3.72-35.28-11.16-6.07-7.44-9.11-19.54-9.11-36.31v-30.54c0-16.94-2.57-31.22-7.7-42.85v-5.65h44.65v6.16c-2.57,8.9-3.85,20.44-3.85,34.64v34.13c0,8.56,1.45,15.18,4.36,19.89,2.91,4.71,7.01,7.06,12.32,7.06,9.07,0,19.84-4.36,32.33-13.09v-40.29c0-17.28-2.48-31.56-7.44-42.85v-5.65h44.39v6.16c-2.57,8.9-3.85,20.44-3.85,34.64v34.13c0,7.7,1.24,15.23,3.72,22.58,2.48,7.36,5.43,12.49,8.85,15.4l.77,5.65-40.29,10.26c-3.59-6.16-5.65-13.09-6.16-20.78-14.72,12.32-27.29,18.48-37.72,18.48Z"/>
    <path class="cls-2" d="M1261,148.84c12.83,0,22.75,3.98,29.77,11.93,7.01,7.96,10.52,19.46,10.52,34.51v32.59c0,16.94,2.57,31.39,7.7,43.37v5.65h-45.16v-5.65c2.91-8.04,4.36-19.59,4.36-34.64v-32.08c0-9.92-1.2-17.23-3.59-21.94-2.4-4.7-7.53-7.06-15.4-7.06s-17.88,3.59-30.02,10.78v42.08c0,17.96,2.48,32.25,7.44,42.85v5.65h-44.91v-5.65c2.91-8.73,4.36-20.87,4.36-36.44v-34.39c0-20.36-5.13-33.1-15.4-38.24v-5.65l41.57-7.95,2.82,4.88c1.37,4.11,2.31,9.58,2.82,16.42,8.73-7.01,16.29-12.27,22.71-15.78,6.41-3.5,13.22-5.26,20.4-5.26Z"/>
    <path class="cls-2" d="M1383.66,176.05v54.92c0,16.25,2.48,29.68,7.44,40.29v5.65h-44.91v-5.65c2.91-8.73,4.36-20.27,4.36-34.64v-37.98c0-9.41-1.46-17.23-4.36-23.48-2.91-6.24-6.59-10.56-11.03-12.96v-5.65l46.96-8.73,3.08,5.13c-1.03,3.94-1.54,11.64-1.54,23.1ZM1378.78,92.9c1.54,1.37,2.61,4.28,3.21,8.73.6,4.45.9,7.87.9,10.26s-.17,4.53-.51,6.41l-2.31,2.05c-7.53,2.22-17.37,3.77-29.51,4.62l-2.82-1.28c-1.37-2.22-2.44-5.9-3.21-11.03-.77-5.13-1.15-8.68-1.15-10.65v-3.98l2.31-2.05c9.24-3.08,18.39-4.62,27.46-4.62h2.82l2.82,1.54Z"/>
    <path class="cls-2" d="M1465.52,276.89h-41.57v-5.65c2.73-8.38,4.11-20.79,4.11-37.21v-100.85c0-14.71-3.85-25.75-11.55-33.1v-5.65l42.34-8.98,3.08,5.65c-.51,4.79-.77,21.47-.77,50.04v49.78l38.49-29.25c3.93-3.08,5.9-6.24,5.9-9.49h40.29v5.65c-6.5.86-15.49,5.9-26.94,15.14l-36.18,29,46.19,49.53c2.73,2.91,7.14,6.72,13.22,11.42,6.07,4.71,11.07,7.49,15.01,8.34v5.65h-48.76c0-3.25-1.71-6.67-5.13-10.26-4.62-5.65-18.65-21.38-42.08-47.22v11.55c0,18.65,1.45,32.08,4.36,40.29v5.65Z"/>
    <path class="cls-2" d="M1605.63,281.51c-10.78,0-20.27-3.25-28.48-9.75-8.21-6.5-12.32-15.91-12.32-28.23,0-23.78,17.36-35.67,52.09-35.67l22.84,1.03v-15.65c0-8.89-2.22-16.08-6.67-21.56-4.45-5.47-11.29-8.21-20.53-8.21-2.05,0-4.71,1.07-7.96,3.21-3.25,2.14-5.99,4.32-8.21,6.54-7.02,6.67-12.66,12.15-16.94,16.42-8.56-10.09-13.17-20.27-13.86-30.54,21.9-6.84,40.37-10.26,55.43-10.26s27.63,3.51,37.72,10.52c10.09,7.02,15.14,18.05,15.14,33.1v40.29c0,7.7,1.28,15.06,3.85,22.07,2.57,7.02,5.73,11.72,9.49,14.11l.51,5.65-36.7,7.7c-2.74-5.13-5.3-12.32-7.7-21.56-4.45,4.79-8.04,8.34-10.78,10.65-2.74,2.31-6.54,4.58-11.42,6.8-4.88,2.22-10.05,3.34-15.52,3.34ZM1640.01,225.57c-6.16-2.22-12.96-3.34-20.4-3.34s-13.13,1.37-17.07,4.11c-2.57,3.25-3.85,7.53-3.85,12.83,0,13.34,5.81,20.02,17.45,20.02,9.58,0,17.53-3.93,23.86-11.8v-21.81Z"/>
  </g>
  <rect class="cls-1" width="2160" height="368"/>
</svg>